<?xml version="1.0" standalone="no"?>
<!DOCTYPE svg PUBLIC "-//W3C//DTD SVG 20010904//EN"
 "http://www.w3.org/TR/2001/REC-SVG-20010904/DTD/svg10.dtd">
<svg version="1.0" xmlns="http://www.w3.org/2000/svg"
 width="417.000000pt" height="417.000000pt" viewBox="0 0 417.000000 417.000000"
 preserveAspectRatio="xMidYMid meet">
<metadata>
Created by potrace 1.11, written by Peter Selinger 2001-2013
</metadata>
<g transform="translate(0.000000,417.000000) scale(0.100000,-0.100000)"
fill="#000000" stroke="none">
<path d="M150 2085 l0 -2085 1935 0 1935 0 0 2085 0 2085 -1935 0 -1935 0 0
-2085z m1987 1555 c86 -114 412 -545 533 -705 42 -55 85 -102 96 -105 23 -6
26 38 -36 -415 -11 -82 -36 -267 -55 -410 -74 -559 -125 -945 -140 -1055 -9
-63 -26 -190 -39 -283 -22 -164 -20 -195 12 -136 l13 24 -3 -25 c-3 -21 -37
-42 -246 -151 l-244 -126 -181 100 c-100 55 -184 101 -186 103 -2 2 -28 239
-57 526 -29 288 -67 660 -84 828 -17 168 -35 348 -40 400 -28 282 -60 590 -62
598 -3 9 61 103 404 596 162 234 206 302 212 330 8 34 3 39 103 -94z m470
-2662 c-3 -8 -6 -5 -6 6 -1 11 2 17 5 13 3 -3 4 -12 1 -19z m-30 -160 c-3 -8
-6 -5 -6 6 -1 11 2 17 5 13 3 -3 4 -12 1 -19z m-10 -50 c-3 -8 -6 -5 -6 6 -1
11 2 17 5 13 3 -3 4 -12 1 -19z m-10 -50 c-3 -7 -5 -2 -5 12 0 14 2 19 5 13 2
-7 2 -19 0 -25z m-30 -150 c-3 -8 -6 -5 -6 6 -1 11 2 17 5 13 3 -3 4 -12 1
-19z"/>
</g>
</svg>
